<?xml version="1.0" encoding="UTF-8"?><svg id="Layer_2" xmlns="http://www.w3.org/2000/svg" viewBox="0 0 774.78 1080"><defs><style>.cls-1{fill:#fff;}</style></defs><g id="Logo_Icon"><g id="SCADYS_LOGO_Avatar_White_"><g id="Sketch164"><path id="Sketch164_w0000" class="cls-1" d="M131.99,152.07l309.71,309.71-309.71,309.71c-171.05-171.05-171.05-448.38,0-619.43"/><path id="Sketch164_w0001" class="cls-1" d="M155.35,128.29l309.71,309.71,309.71-309.71c-171.05-171.05-448.38-171.06-619.43,0,0,0,0,0,0,0"/><path id="Sketch164_w0002" class="cls-1" d="M333.21,617.38l309.71-309.71c171.05,171.05,171.05,448.38,0,619.43,0,0,0,0,0,0l-309.71-309.71"/><path id="Sketch164_w0003" class="cls-1" d="M309.71,641.99L0,951.71c171.05,171.05,448.38,171.05,619.43,0,0,0,0,0,0,0l-309.72-309.71"/></g></g></g></svg>